<?xml version="1.0" standalone="no"?>
<!DOCTYPE svg PUBLIC "-//W3C//DTD SVG 20010904//EN"
 "http://www.w3.org/TR/2001/REC-SVG-20010904/DTD/svg10.dtd">
<svg version="1.0" xmlns="http://www.w3.org/2000/svg"
 width="4500.000000pt" height="2532.000000pt" viewBox="0 0 4500.000000 2532.000000"
 preserveAspectRatio="xMidYMid meet">

<g transform="translate(0.000000,2532.000000) scale(0.100000,-0.100000)"
fill="#000000" stroke="none">
<path d="M0 12660 l0 -12660 22500 0 22500 0 0 12660 0 12660 -22500 0 -22500
0 0 -12660z m23104 7395 c19 -10 58 -15 126 -15 67 0 107 -5 126 -15 19 -10
58 -15 111 -15 53 0 83 -4 85 -12 3 -7 41 -14 101 -18 54 -3 103 -12 109 -18
7 -7 41 -12 80 -12 54 0 68 -3 68 -15 0 -12 17 -15 89 -15 70 0 90 -3 95 -15
4 -11 21 -15 60 -15 39 0 55 -4 60 -15 4 -11 21 -15 61 -15 42 0 55 -3 55 -15
0 -11 11 -15 41 -15 23 0 47 -7 55 -15 10 -9 34 -15 64 -15 33 0 50 -5 54 -15
3 -10 19 -15 46 -15 29 0 40 -4 40 -15 0 -12 13 -15 60 -15 44 0 60 -4 60 -14
0 -8 16 -16 42 -19 24 -3 44 -11 46 -16 2 -6 16 -11 32 -11 16 0 30 -7 34 -15
3 -10 19 -15 46 -15 29 0 40 -4 40 -15 0 -13 39 -22 73 -16 4 1 10 -6 13 -14
4 -9 19 -15 35 -15 19 0 29 -5 29 -15 0 -10 10 -15 30 -15 20 0 30 -5 30 -15
0 -11 12 -15 45 -15 33 0 45 -4 45 -15 0 -13 38 -22 73 -16 4 0 7 -6 7 -14 0
-10 11 -15 35 -15 24 0 35 -5 35 -15 0 -10 10 -15 30 -15 20 0 30 -5 30 -15 0
-10 10 -15 29 -15 16 0 34 -7 41 -15 7 -8 21 -15 31 -15 9 0 24 -7 33 -15 8
-8 24 -15 35 -15 11 0 26 -7 35 -15 8 -8 21 -15 30 -15 8 0 21 -6 28 -14 8 -7
24 -17 36 -20 12 -4 22 -12 22 -17 0 -5 9 -9 19 -9 10 0 21 -7 25 -15 3 -8 17
-15 31 -15 16 0 25 -6 25 -15 0 -10 10 -15 30 -15 20 0 30 -5 30 -15 0 -13 18
-20 43 -16 4 1 10 -6 13 -14 4 -8 12 -15 19 -15 7 0 15 -7 19 -15 3 -8 17 -15
31 -15 16 0 25 -6 25 -15 0 -10 10 -15 30 -15 20 0 30 -5 30 -15 0 -8 7 -15
15 -15 8 0 15 -7 15 -15 0 -9 9 -15 25 -15 14 0 28 -7 31 -15 4 -8 12 -15 19
-15 7 0 15 -7 19 -15 3 -8 16 -15 30 -15 13 0 26 -7 30 -15 3 -8 17 -15 31
-15 16 0 25 -6 25 -15 0 -10 10 -15 30 -15 20 0 30 -5 30 -15 0 -8 7 -15 15
-15 8 0 15 -7 15 -15 0 -9 9 -15 25 -15 14 0 28 -7 31 -15 4 -8 12 -15 20 -15
8 0 14 -7 14 -15 0 -8 9 -15 19 -15 10 0 21 -7 25 -15 3 -8 15 -15 26 -15 11
0 20 -7 20 -15 0 -8 7 -15 15 -15 9 0 18 -7 21 -15 4 -8 17 -15 31 -15 18 0
24 -4 19 -15 -4 -10 1 -15 14 -15 11 0 20 -7 20 -15 0 -8 6 -15 14 -15 7 0 19
-7 26 -15 7 -8 21 -15 31 -15 11 0 19 -7 19 -15 0 -8 7 -15 15 -15 8 0 15 -7
15 -15 0 -8 7 -15 15 -15 8 0 15 -6 15 -14 0 -8 11 -17 25 -20 14 -4 25 -11
25 -16 0 -6 9 -10 20 -10 11 0 20 -7 20 -15 0 -8 7 -15 15 -15 8 0 15 -7 15
-15 0 -8 7 -15 15 -15 8 0 15 -7 15 -15 0 -8 7 -15 15 -15 17 0 75 -57 75 -74
0 -6 4 -4 10 4 8 12 10 12 16 -3 3 -9 13 -17 21 -17 9 0 13 -6 9 -15 -4 -10 1
-15 14 -15 11 0 20 -7 20 -15 0 -8 7 -15 15 -15 8 0 15 -7 15 -15 0 -8 7 -15
15 -15 8 0 15 -7 15 -15 0 -8 7 -15 15 -15 8 0 15 -7 15 -15 0 -8 7 -15 15
-15 8 0 15 -7 15 -15 0 -13 18 -20 43 -16 4 0 7 -4 7 -11 0 -6 20 -31 44 -54
25 -23 42 -45 39 -48 -3 -3 6 -8 21 -12 14 -3 26 -10 26 -15 0 -5 7 -9 15 -9
8 0 15 -7 15 -15 0 -8 7 -15 15 -15 8 0 15 -7 15 -15 0 -8 7 -15 15 -15 8 0
15 -7 15 -15 0 -8 7 -15 15 -15 8 0 15 -9 15 -20 0 -11 7 -20 15 -20 8 0 14
-5 12 -12 -1 -7 5 -13 13 -13 8 0 14 -6 13 -13 -2 -7 6 -12 17 -12 13 0 20 -7
20 -20 0 -11 4 -20 9 -20 5 0 13 -9 16 -21 4 -11 18 -25 31 -31 14 -6 27 -22
30 -35 4 -13 10 -23 15 -23 12 0 49 -38 49 -50 0 -5 7 -10 15 -10 8 0 15 -7
15 -15 0 -8 7 -15 15 -15 8 0 15 -7 15 -15 0 -8 7 -15 15 -15 8 0 15 -7 15
-15 0 -8 8 -15 17 -15 9 0 13 -3 10 -6 -3 -4 3 -18 13 -32 11 -13 20 -31 20
-38 0 -8 5 -14 10 -14 6 0 19 -9 30 -20 11 -11 20 -24 20 -30 0 -5 7 -10 15
-10 8 0 15 -7 15 -15 0 -8 7 -15 15 -15 8 0 15 -6 15 -14 0 -8 7 -16 15 -20 8
-3 15 -9 14 -13 -4 -25 3 -43 16 -43 8 0 15 -7 15 -15 0 -8 7 -15 15 -15 9 0
15 -9 15 -25 0 -14 7 -28 15 -31 8 -4 15 -12 15 -20 0 -8 7 -14 15 -14 9 0 15
-9 15 -25 0 -14 7 -28 15 -31 8 -4 15 -12 15 -20 0 -8 7 -14 15 -14 8 0 15 -9
15 -20 0 -11 4 -20 10 -20 5 0 12 -11 16 -25 3 -14 12 -25 20 -25 8 0 14 -9
14 -20 0 -11 6 -20 13 -20 8 0 7 -4 -3 -10 -13 -8 -12 -10 3 -10 9 0 17 -7 17
-15 0 -8 7 -15 15 -15 10 0 15 -10 15 -30 0 -20 5 -30 15 -30 8 0 15 -8 15
-19 0 -10 7 -24 15 -31 8 -7 15 -19 15 -26 0 -8 7 -14 15 -14 8 0 15 -9 15
-20 0 -11 4 -20 10 -20 5 0 12 -11 16 -25 3 -14 12 -25 20 -25 8 0 14 -9 14
-20 0 -11 5 -20 11 -20 5 0 7 -4 4 -10 -3 -5 -1 -10 4 -10 6 0 11 -6 11 -14 0
-8 7 -16 15 -20 8 -3 15 -17 15 -31 0 -16 6 -25 15 -25 10 0 15 -10 15 -30 0
-20 5 -30 15 -30 10 0 15 -10 15 -30 0 -20 5 -30 15 -30 8 0 15 -9 15 -19 0
-11 7 -26 15 -35 8 -8 15 -19 15 -24 0 -6 7 -12 15 -16 8 -3 15 -16 15 -30 0
-13 7 -26 15 -30 8 -3 15 -17 15 -31 0 -16 6 -25 15 -25 11 0 15 -11 15 -36 0
-19 4 -33 9 -30 10 6 21 -26 21 -61 0 -14 6 -23 15 -23 10 0 15 -10 15 -30 0
-20 5 -30 15 -30 10 0 15 -10 15 -30 0 -20 5 -30 15 -30 10 0 15 -10 15 -30 0
-20 5 -30 15 -30 10 0 15 -10 15 -30 0 -16 4 -30 10 -30 5 0 13 -18 16 -41 4
-22 13 -43 20 -46 8 -3 14 -16 14 -29 0 -14 7 -27 15 -30 9 -4 15 -19 15 -35
0 -19 5 -29 15 -29 10 0 15 -10 15 -31 0 -17 7 -37 15 -45 8 -9 15 -29 15 -45
0 -19 5 -29 15 -29 11 0 15 -11 15 -40 0 -27 5 -43 15 -46 9 -4 15 -19 15 -36
0 -16 7 -36 15 -44 8 -9 15 -27 15 -42 0 -15 7 -36 15 -46 8 -11 15 -39 15
-63 0 -32 4 -43 15 -43 11 0 15 -12 15 -44 0 -25 5 -46 12 -48 6 -2 13 -30 16
-61 3 -35 9 -57 17 -57 7 0 12 -17 13 -42 1 -23 9 -52 17 -64 8 -13 15 -46 15
-74 0 -36 4 -52 15 -56 11 -5 15 -22 15 -65 0 -46 3 -59 15 -59 12 0 15 -13
15 -60 0 -45 4 -62 15 -66 11 -5 15 -23 15 -75 0 -55 3 -69 15 -69 12 0 15
-14 15 -70 0 -54 4 -72 15 -76 12 -5 15 -24 15 -84 0 -58 4 -81 16 -91 9 -7
15 -26 14 -48 -1 -20 -2 -93 -1 -163 1 -102 4 -128 15 -128 11 0 15 -24 18
-107 2 -72 8 -108 16 -111 19 -6 17 -1308 -2 -1315 -9 -4 -15 -31 -19 -79 -7
-84 -10 -105 -20 -114 -4 -4 -7 -63 -7 -131 0 -83 -4 -123 -11 -123 -6 0 -9
-7 -5 -15 3 -8 1 -15 -4 -15 -6 0 -10 -20 -10 -45 0 -33 -4 -45 -15 -45 -12 0
-15 -13 -15 -60 0 -47 -3 -60 -15 -60 -12 0 -15 -15 -15 -75 0 -60 -3 -75 -15
-75 -12 0 -15 -13 -15 -60 0 -47 -3 -60 -15 -60 -11 0 -15 -13 -16 -52 -1 -29
-1 -56 0 -60 0 -5 -6 -8 -14 -8 -12 0 -15 -15 -16 -67 -1 -38 -1 -71 0 -75 0
-5 -6 -8 -14 -8 -13 0 -19 -29 -14 -67 0 -3 -6 -10 -15 -15 -11 -6 -16 -23
-16 -53 0 -33 -4 -45 -15 -45 -11 0 -15 -12 -15 -45 0 -33 -4 -45 -15 -45 -11
0 -15 -11 -15 -39 0 -51 -10 -78 -21 -59 -6 9 -9 3 -9 -18 0 -17 -7 -37 -15
-44 -8 -7 -15 -24 -15 -39 0 -38 -11 -72 -21 -65 -5 3 -9 -11 -9 -30 0 -25 -4
-36 -15 -36 -11 0 -15 -12 -15 -45 0 -33 -4 -45 -15 -45 -10 0 -15 -10 -15
-29 0 -17 -5 -33 -10 -36 -6 -4 -8 -11 -5 -16 4 -5 1 -9 -4 -9 -6 0 -11 -13
-11 -29 0 -16 -6 -31 -15 -35 -8 -3 -15 -17 -15 -31 0 -16 -6 -25 -15 -25 -10
0 -15 -10 -15 -30 0 -20 -5 -30 -15 -30 -10 0 -15 -11 -16 -30 -2 -49 -4 -55
-17 -52 -8 1 -12 -11 -12 -33 0 -24 -5 -35 -15 -35 -10 0 -15 -10 -15 -29 0
-16 -6 -31 -15 -35 -8 -3 -15 -18 -15 -32 0 -15 -7 -35 -16 -45 -9 -10 -17
-29 -18 -43 0 -14 -7 -26 -13 -26 -8 0 -13 -13 -13 -30 0 -20 -5 -30 -15 -30
-10 0 -15 -10 -15 -30 0 -20 -5 -30 -15 -30 -8 0 -15 -6 -15 -14 0 -7 -7 -19
-15 -26 -8 -7 -15 -21 -15 -31 0 -11 -7 -19 -15 -19 -14 0 -19 -14 -18 -48 1
-7 -5 -11 -13 -8 -13 5 -18 -11 -17 -51 1 -7 -5 -13 -13 -13 -12 0 -19 -19
-15 -42 0 -5 -5 -8 -13 -8 -8 0 -17 -15 -21 -37 -5 -27 -9 -33 -16 -22 -6 10
-9 7 -9 -13 0 -18 -5 -28 -15 -28 -8 0 -15 -7 -15 -15 0 -8 -7 -15 -15 -15
-10 0 -15 -10 -15 -30 0 -20 -5 -30 -15 -30 -8 0 -15 -7 -15 -15 0 -8 -7 -15
-15 -15 -8 0 -15 -7 -15 -15 0 -8 -5 -15 -11 -15 -5 0 -7 -5 -4 -10 3 -5 1
-10 -4 -10 -6 0 -11 -9 -11 -20 0 -11 -7 -20 -15 -20 -13 0 -21 -25 -16 -53 1
-4 -7 -7 -16 -5 -10 2 -17 -2 -15 -10 1 -7 -5 -15 -13 -18 -8 -4 -15 -12 -15
-20 0 -8 -7 -14 -15 -14 -8 0 -15 -7 -15 -15 0 -8 -7 -15 -15 -15 -10 0 -15
-10 -15 -30 0 -20 -5 -30 -15 -30 -8 0 -15 -7 -15 -15 0 -8 -6 -15 -14 -15 -8
0 -17 -14 -21 -30 -4 -17 -11 -28 -16 -24 -5 3 -9 -4 -9 -15 0 -12 -7 -21 -15
-21 -8 0 -15 -7 -15 -15 0 -8 -7 -15 -15 -15 -8 0 -15 -7 -15 -15 0 -8 -7 -15
-15 -15 -8 0 -15 -5 -15 -11 0 -6 -7 -17 -15 -25 -8 -9 -15 -24 -15 -35 0 -10
-7 -19 -15 -19 -8 0 -15 -7 -15 -15 0 -8 -6 -15 -14 -15 -7 0 -16 -9 -19 -21
-3 -12 -10 -18 -16 -14 -7 4 -11 -5 -11 -24 0 -21 -5 -31 -15 -31 -8 0 -15 -7
-15 -15 0 -8 -7 -15 -15 -15 -10 0 -15 -10 -15 -30 0 -20 -5 -30 -15 -30 -8 0
-15 -7 -15 -15 0 -8 -7 -15 -15 -15 -8 0 -15 -7 -15 -15 0 -8 -7 -15 -15 -15
-8 0 -15 -7 -15 -15 0 -8 -7 -15 -15 -15 -8 0 -15 -7 -15 -15 0 -8 -7 -15 -15
-15 -8 0 -15 -4 -15 -10 0 -13 -37 -50 -50 -50 -5 0 -10 -7 -10 -15 0 -8 -7
-15 -15 -15 -8 0 -15 -7 -15 -15 0 -8 -7 -15 -15 -15 -8 0 -15 -7 -15 -15 0
-8 -7 -15 -15 -15 -10 0 -15 -10 -15 -30 0 -20 -5 -30 -15 -30 -8 0 -15 -7
-15 -15 0 -8 -7 -15 -15 -15 -13 0 -20 -18 -16 -43 0 -4 -5 -7 -11 -7 -16 0
-58 -44 -58 -59 0 -6 -3 -10 -7 -10 -25 4 -43 -3 -43 -16 0 -8 -7 -15 -15 -15
-8 0 -15 -4 -15 -10 0 -5 -9 -19 -20 -30 -11 -11 -24 -20 -30 -20 -5 0 -10 -7
-10 -15 0 -8 -7 -15 -15 -15 -8 0 -15 -7 -15 -15 0 -8 -7 -15 -15 -15 -8 0
-15 -7 -15 -15 0 -8 -7 -15 -15 -15 -8 0 -15 -7 -15 -15 0 -8 -7 -15 -15 -15
-8 0 -15 -6 -15 -14 0 -8 -13 -17 -30 -21 -16 -4 -30 -11 -30 -16 0 -5 -7 -9
-15 -9 -8 0 -15 -7 -15 -15 0 -9 -9 -15 -21 -15 -13 0 -19 -5 -16 -13 3 -8 -4
-14 -16 -15 -12 0 -27 -8 -33 -17 -6 -8 -16 -15 -23 -15 -6 0 -11 -7 -11 -15
0 -10 -10 -15 -30 -15 -20 0 -30 -5 -30 -15 0 -8 -7 -15 -15 -15 -8 0 -15 -7
-15 -15 0 -8 -7 -15 -15 -15 -8 0 -15 -7 -15 -15 0 -10 -10 -15 -30 -15 -20 0
-30 -5 -30 -15 0 -8 -7 -15 -15 -15 -8 0 -15 -7 -15 -15 0 -8 -3 -14 -7 -14
-23 4 -43 -2 -38 -11 3 -5 -6 -12 -20 -16 -14 -3 -25 -12 -25 -20 0 -8 -9 -14
-20 -14 -11 0 -20 -5 -20 -12 0 -6 -3 -8 -7 -5 -3 4 -16 -5 -29 -18 -13 -14
-28 -25 -34 -25 -5 0 -10 -7 -10 -15 0 -8 -7 -15 -15 -15 -8 0 -15 -7 -15 -15
0 -8 -7 -15 -15 -15 -8 0 -15 -7 -15 -15 0 -8 -7 -15 -15 -15 -8 0 -15 -7 -15
-15 0 -10 -11 -15 -35 -15 -19 0 -35 -4 -35 -10 0 -5 -11 -12 -25 -16 -14 -3
-25 -12 -25 -20 0 -8 -9 -14 -20 -14 -11 0 -20 -7 -20 -16 0 -8 -5 -12 -10 -9
-6 3 -13 -1 -16 -9 -3 -9 -10 -13 -15 -10 -5 3 -9 0 -9 -5 0 -6 -7 -11 -15
-11 -8 0 -15 -7 -15 -15 0 -8 -7 -15 -15 -15 -8 0 -15 -7 -15 -15 0 -8 -7 -15
-15 -15 -8 0 -15 -7 -15 -15 0 -8 -7 -15 -15 -15 -8 0 -15 -7 -15 -15 0 -8 -7
-15 -15 -15 -8 0 -15 -7 -15 -15 0 -10 -10 -15 -30 -15 -20 0 -30 -5 -30 -15
0 -8 -7 -15 -15 -15 -8 0 -15 -7 -15 -16 0 -10 -5 -14 -15 -10 -9 3 -24 -3
-35 -14 -11 -11 -25 -20 -30 -20 -5 0 -10 -7 -10 -15 0 -10 -10 -15 -30 -15
-20 0 -30 -5 -30 -15 0 -10 -10 -15 -30 -15 -20 0 -30 -5 -30 -15 0 -10 -10
-15 -30 -15 -19 0 -30 -5 -30 -14 0 -8 -13 -17 -30 -21 -16 -4 -30 -11 -30
-16 0 -5 -11 -9 -25 -9 -14 0 -28 -7 -31 -15 -4 -9 -19 -15 -35 -15 -19 0 -29
-5 -29 -15 0 -9 -9 -15 -25 -15 -14 0 -28 -7 -31 -15 -4 -9 -19 -15 -35 -15
-19 0 -29 -5 -29 -15 0 -10 -10 -15 -30 -15 -20 0 -30 -5 -30 -15 0 -10 -10
-15 -30 -15 -20 0 -30 -5 -30 -15 0 -10 -10 -15 -30 -15 -20 0 -30 -5 -30 -15
0 -10 -11 -15 -35 -15 -24 0 -35 -5 -35 -15 0 -8 -3 -14 -7 -14 -35 6 -73 -3
-73 -16 0 -10 -10 -15 -30 -15 -19 0 -30 -5 -30 -14 0 -8 -6 -14 -12 -13 -47
1 -88 -4 -84 -12 7 -10 -27 -21 -66 -21 -17 0 -27 -5 -25 -12 2 -13 -4 -15
-53 -17 -19 -1 -30 -6 -30 -16 0 -8 -9 -15 -21 -15 -11 0 -18 -4 -15 -9 7 -11
-28 -21 -75 -21 -19 0 -40 -5 -46 -11 -5 -5 -27 -12 -47 -15 -27 -3 -36 -1
-36 11 0 8 -7 15 -15 15 -11 0 -15 12 -15 45 0 33 -4 45 -15 45 -10 0 -15 10
-15 31 0 17 -7 37 -15 45 -8 9 -15 29 -15 45 0 19 -5 29 -15 29 -8 0 -15 9
-15 21 0 11 -4 17 -10 14 -5 -3 -13 12 -16 35 -4 23 -13 44 -20 47 -8 3 -14
11 -14 19 0 8 -7 14 -15 14 -8 0 -15 9 -15 20 0 13 -5 18 -15 14 -11 -5 -15 1
-15 20 0 15 -7 29 -15 32 -8 4 -15 12 -15 20 0 8 -7 14 -15 14 -10 0 -15 10
-15 30 0 20 -5 30 -15 30 -8 0 -15 7 -15 15 0 8 -7 15 -15 15 -8 0 -15 7 -15
15 0 8 -7 15 -15 15 -10 0 -15 10 -15 30 0 20 -5 30 -15 30 -8 0 -15 7 -15 15
0 8 -7 15 -15 15 -8 0 -15 8 -15 19 0 10 -7 24 -15 31 -8 7 -15 19 -15 26 0 8
7 14 15 14 8 0 15 7 15 15 0 8 6 15 13 15 8 0 7 4 -3 10 -13 9 -7 14 13 11 4
0 7 8 7 19 0 11 6 20 14 20 8 0 17 11 20 25 4 14 11 25 16 25 6 0 10 9 10 20
0 11 7 20 15 20 8 0 15 7 15 15 0 8 7 15 15 15 8 0 15 7 15 15 0 8 7 15 15 15
8 0 15 7 15 15 0 8 7 15 15 15 8 0 15 7 15 15 0 8 7 15 15 15 8 0 15 7 15 15
0 8 7 15 15 15 8 0 15 7 15 15 0 8 5 15 11 15 5 0 7 5 4 10 -3 6 -1 10 4 10 6
0 11 9 11 20 0 11 7 20 15 20 8 0 15 7 15 15 0 8 6 15 14 15 9 0 16 12 18 33
2 19 8 31 16 29 9 -1 12 30 12 133 0 113 -2 135 -15 135 -9 0 -15 10 -15 26 0
19 -7 28 -30 37 -16 6 -30 15 -30 19 0 4 -13 8 -30 8 -20 0 -30 5 -30 15 0 8
5 15 10 15 6 0 10 5 10 11 0 5 -4 7 -10 4 -5 -3 -10 1 -10 9 0 9 -4 15 -9 14
-5 -2 -9 0 -10 5 -1 4 -10 16 -21 27 -11 11 -20 27 -20 35 0 8 -7 15 -15 15
-8 0 -15 7 -15 15 0 8 -7 15 -15 15 -8 0 -15 7 -15 15 0 8 -7 15 -15 15 -8 0
-15 7 -15 15 0 8 -7 15 -15 15 -8 0 -15 7 -15 15 0 8 -7 15 -15 15 -8 0 -15 9
-15 20 0 13 -5 18 -15 14 -9 -4 -15 0 -15 10 0 9 -7 16 -16 16 -10 0 -14 6
-10 15 4 10 -1 15 -14 15 -11 0 -20 7 -20 15 0 8 -7 15 -15 15 -8 0 -15 7 -15
15 0 8 -7 15 -15 15 -8 0 -15 7 -15 15 0 8 -7 15 -15 15 -8 0 -15 7 -15 15 0
8 -7 15 -15 15 -8 0 -15 7 -15 15 0 8 -7 15 -15 15 -8 0 -15 7 -15 15 0 8 -7
15 -15 15 -8 0 -15 7 -15 15 0 8 -7 15 -15 15 -8 0 -15 7 -15 15 0 8 -7 15
-15 15 -8 0 -15 7 -15 15 0 8 -7 15 -15 15 -8 0 -15 7 -15 15 0 8 -7 15 -15
15 -8 0 -15 7 -15 15 0 8 -7 15 -15 15 -8 0 -15 7 -15 15 0 8 -7 15 -15 15 -8
0 -15 7 -15 15 0 8 -7 15 -15 15 -8 0 -15 7 -15 15 0 8 -7 15 -15 15 -8 0 -15
7 -15 15 0 8 -7 15 -15 15 -8 0 -15 7 -15 15 0 8 -7 15 -15 15 -8 0 -15 7 -15
15 0 8 -7 15 -15 15 -8 0 -15 7 -15 15 0 10 -10 15 -30 15 -22 0 -30 5 -31 18
0 10 -3 12 -6 5 -2 -7 -9 -13 -14 -13 -6 0 -7 5 -4 10 5 8 -13 12 -42 9 -22
-2 -29 79 -8 95 8 6 16 26 17 45 1 18 8 36 15 38 10 4 13 45 13 169 0 139 2
164 15 164 12 0 15 20 15 119 0 81 4 121 12 123 6 2 13 30 16 62 3 43 8 56 18
52 9 -3 14 2 14 14 0 11 7 20 15 20 8 0 15 7 15 15 0 11 11 15 35 15 20 0 46
6 58 14 13 8 61 16 120 19 54 2 103 9 110 16 7 7 57 11 139 11 105 0 130 3
134 15 5 11 22 15 63 15 35 0 65 6 77 15 13 10 45 14 107 15 70 0 87 3 87 15
0 12 13 15 55 15 40 0 57 4 61 15 4 10 20 15 50 15 32 0 44 4 44 15 0 12 13
15 60 15 47 0 60 3 60 15 0 10 10 15 30 15 20 0 30 5 30 15 0 12 13 15 56 15
30 0 53 4 50 9 -7 11 17 21 50 21 15 0 24 6 24 15 0 10 10 15 30 15 20 0 30 5
30 15 0 9 6 15 13 14 30 -4 47 2 47 16 0 10 10 15 30 15 20 0 30 5 30 15 0 8
9 15 20 15 14 0 18 5 13 17 -5 12 -2 15 10 10 12 -5 17 -1 17 13 0 11 7 20 15
20 8 0 15 7 15 15 0 8 7 15 15 15 10 0 15 10 15 30 0 20 5 30 15 30 10 0 15
10 15 34 0 19 7 41 15 50 11 11 15 39 15 116 0 77 -4 105 -15 116 -9 9 -15 34
-15 62 0 30 -3 42 -9 34 -7 -11 -10 -10 -15 3 -3 9 -6 28 -6 41 0 15 -6 24
-15 24 -11 0 -15 11 -15 36 0 19 -4 33 -9 30 -5 -3 -12 1 -15 10 -10 27 -7 44
9 44 10 0 15 10 15 30 0 20 5 30 15 30 8 0 15 7 15 15 0 8 7 15 15 15 8 0 15
7 15 15 0 8 7 15 15 15 8 0 15 7 15 15 0 8 9 15 20 15 11 0 20 5 20 10 0 6 11
15 25 20 23 9 30 26 28 78 -1 6 5 12 13 12 10 0 14 13 14 45 0 33 -4 45 -15
45 -11 0 -15 11 -15 40 0 27 -5 43 -15 46 -8 4 -15 12 -15 20 0 8 -6 14 -14
14 -19 0 -46 27 -46 46 0 8 9 14 20 14 11 0 20 7 20 15 0 9 9 15 25 15 16 0
25 6 25 15 0 8 7 15 15 15 8 0 15 7 15 15 0 8 6 15 14 15 8 0 17 11 20 25 4
14 11 25 16 25 6 0 10 15 10 33 0 18 7 43 16 56 15 21 15 26 1 50 -23 39 -25
441 -2 441 8 0 15 7 15 15 0 10 10 15 30 15 20 0 30 5 30 15 0 11 12 15 45 15
26 0 45 5 45 11 0 6 7 9 15 5 8 -3 15 -1 15 4 0 6 14 10 30 10 20 0 30 5 30
15 0 8 7 15 15 15 8 0 15 7 15 16 0 10 6 14 14 11 16 -6 40 16 29 26 -3 4 -1
7 5 7 7 0 12 7 12 16 0 8 5 12 11 9 6 -4 13 2 16 14 3 12 12 21 19 21 9 0 14
11 14 30 0 20 5 30 15 30 11 0 15 12 15 50 0 28 4 50 9 50 5 0 5 16 0 38 -5
20 -9 53 -9 73 0 20 -7 42 -15 49 -8 7 -15 25 -15 41 0 19 -5 29 -15 29 -8 0
-15 9 -15 20 0 11 -7 20 -15 20 -8 0 -14 3 -14 8 4 24 -3 42 -16 42 -8 0 -15
7 -15 15 0 8 -7 15 -15 15 -8 0 -15 7 -15 15 0 8 -7 15 -15 15 -8 0 -15 9 -15
20 0 11 -4 20 -10 20 -5 0 -12 11 -16 25 -3 14 -12 25 -20 25 -8 0 -14 6 -14
14 0 8 -7 16 -15 20 -8 3 -15 18 -15 33 0 21 -3 24 -9 14 -8 -12 -11 -9 -16
11 -4 15 -13 29 -21 32 -8 3 -14 17 -14 31 0 16 -6 25 -15 25 -9 0 -15 9 -15
25 0 14 -7 28 -15 31 -8 4 -15 15 -15 25 0 10 -5 18 -12 17 -12 -3 -14 2 -17
37 0 8 -8 15 -16 15 -10 0 -15 10 -15 33 0 23 -3 28 -9 18 -8 -12 -11 -9 -16
12 -4 15 -13 27 -21 27 -9 0 -14 11 -14 30 0 20 -5 30 -15 30 -8 0 -15 9 -15
20 0 11 -6 19 -12 18 -8 -2 -14 9 -16 25 -2 15 -7 27 -12 27 -5 0 -11 13 -15
29 -3 16 -13 32 -21 35 -8 3 -14 19 -14 41 0 22 -6 38 -15 41 -9 4 -15 19 -15
40 0 22 -4 33 -12 32 -9 -2 -14 12 -16 40 -2 28 -8 42 -18 42 -11 0 -14 14
-14 60 0 47 3 60 15 60 8 0 15 5 15 10 0 6 9 19 20 30 12 12 18 25 15 29 -2 5
2 11 10 15 11 4 15 23 15 80 0 41 5 78 10 81 6 4 8 11 5 16 -4 5 -1 9 4 9 7 0
11 56 11 165 0 125 -3 165 -12 165 -8 0 -14 18 -16 46 -2 26 -9 53 -17 61 -8
8 -15 28 -15 44 0 19 -5 29 -15 29 -10 0 -15 10 -15 30 0 19 -5 30 -14 30 -8
0 -13 11 -13 26 0 15 -6 30 -13 34 -7 4 -9 13 -6 19 4 6 2 11 -3 11 -6 0 -11
14 -11 30 0 20 -5 30 -15 30 -10 0 -15 10 -15 30 0 20 -5 30 -15 30 -12 0 -15
14 -15 65 0 49 -4 67 -15 71 -11 5 -15 22 -15 70 0 50 -3 64 -15 64 -12 0 -15
13 -15 60 0 47 -3 60 -15 60 -11 0 -15 13 -15 53 0 29 -5 58 -12 65 -8 8 -13
54 -15 127 -3 98 -1 115 12 115 8 0 15 7 15 15 0 8 7 15 15 15 12 0 15 13 15
60 0 47 3 60 15 60 11 0 15 12 15 45 0 33 4 45 15 45 11 0 15 12 15 45 0 33 4
45 15 45 10 0 15 10 15 30 0 21 5 30 16 30 11 0 14 8 12 33 -2 19 -8 31 -15
30 -7 -2 -13 4 -13 12 0 8 -7 15 -15 15 -19 0 -19 17 -1 27 12 7 15 42 17 178
1 112 5 172 13 177 8 6 7 8 -1 8 -7 0 -13 6 -13 14 0 7 -8 16 -18 18 -15 4
-18 12 -14 38 4 25 2 31 -8 25 -10 -6 -12 -4 -7 8 3 10 2 17 -3 17 -6 0 -10 7
-10 15 0 8 7 15 15 15 8 0 15 7 15 15 0 8 -7 15 -15 15 -12 0 -15 10 -14 43 1
23 6 50 11 60 5 11 5 17 -2 17 -5 0 -10 22 -10 51 0 29 -4 48 -9 44 -6 -3 -13
10 -17 30 -3 19 -11 35 -16 35 -16 0 -48 41 -48 62 0 10 -16 33 -35 51 -19 17
-35 38 -35 44 0 7 -5 13 -11 13 -6 0 -9 7 -5 15 4 11 -3 15 -29 16 -53 2 -60
4 -58 16 1 6 -7 19 -17 28 -11 10 -20 24 -20 32 0 7 -7 13 -15 13 -8 0 -15 6
-16 13 0 10 -2 10 -6 0 -2 -7 -9 -13 -14 -13 -5 0 -8 6 -6 13 1 8 -17 13 -60
15 -47 2 -63 7 -63 17 0 10 -10 15 -30 15 -19 0 -30 5 -30 14 0 8 -11 17 -24
20 -14 3 -27 15 -31 25 -5 18 -26 32 -50 36 -5 0 -9 6 -8 13 2 7 -6 12 -17 12
-11 0 -20 7 -20 15 0 10 -10 15 -31 15 -16 0 -28 4 -24 9 3 5 -4 12 -15 16
-11 3 -20 13 -20 21 0 9 -11 14 -30 14 -20 0 -30 5 -30 15 0 11 -12 15 -47 16
-27 1 -52 1 -56 0 -4 -1 -10 6 -13 14 -4 9 -19 15 -35 15 -16 0 -29 4 -29 10
0 5 -7 6 -17 3 -11 -4 -14 -3 -9 5 5 8 -4 12 -28 12 -25 0 -36 4 -36 15 0 10
-10 15 -30 15 -20 0 -30 5 -30 15 0 8 -7 16 -15 16 -35 3 -40 5 -38 17 2 7 -6
12 -17 12 -11 0 -20 5 -20 11 0 5 -4 7 -10 4 -5 -3 -10 -1 -10 4 0 6 -16 11
-35 11 -24 0 -35 5 -35 15 0 11 -12 15 -45 15 -25 0 -45 5 -45 11 0 5 -4 7
-10 4 -5 -3 -10 -1 -10 4 0 6 -16 11 -35 11 -24 0 -35 5 -35 15 0 10 -10 15
-29 15 -16 0 -31 -6 -35 -15 -4 -11 -21 -15 -61 -15 -42 0 -55 3 -55 15 0 8
-7 15 -15 15 -8 0 -15 7 -15 15 0 13 -29 19 -67 14 -3 0 -10 6 -15 15 -5 9
-15 16 -22 16 -8 0 -16 7 -20 15 -3 8 -17 15 -31 15 -16 0 -25 6 -25 15 0 8
-7 16 -15 16 -35 3 -40 5 -37 17 1 7 -7 12 -17 12 -11 0 -26 7 -35 15 -8 8
-22 15 -30 15 -9 0 -16 7 -16 15 0 11 -12 15 -50 15 -30 0 -50 4 -50 11 0 7
-11 9 -30 5 -19 -3 -29 -2 -25 4 7 11 -13 12 -140 10 -57 -1 -83 -5 -91 -15
-6 -8 -23 -15 -38 -15 -16 0 -26 -5 -26 -15 0 -10 -10 -15 -30 -15 -20 0 -30
-5 -30 -15 0 -10 -10 -15 -30 -15 -20 0 -30 -5 -30 -15 0 -8 -7 -15 -15 -15
-8 0 -15 -7 -15 -15 0 -11 -12 -15 -45 -15 -33 0 -45 -4 -45 -15 0 -10 -10
-15 -30 -15 -20 0 -30 5 -30 15 0 9 -9 15 -25 15 -14 0 -28 7 -31 15 -4 9 -19
15 -36 15 -17 0 -27 4 -23 10 3 6 -3 10 -14 10 -11 0 -23 5 -26 10 -4 6 -11 8
-17 4 -5 -3 -9 2 -8 12 4 34 0 44 -15 44 -22 0 -20 -59 3 -76 16 -13 16 -13 0
-14 -10 0 -18 -7 -18 -16 0 -9 -6 -14 -12 -11 -7 2 -12 10 -10 16 1 6 -12 11
-33 11 -23 0 -35 -5 -35 -14 0 -8 -7 -16 -15 -20 -11 -4 -15 -21 -15 -61 0
-40 -4 -55 -14 -55 -8 0 -17 -7 -20 -16 -5 -13 -9 -14 -21 -4 -8 7 -15 9 -15
4 0 -5 -4 -3 -8 3 -6 9 -76 13 -274 13 -219 1 -269 4 -278 16 -18 20 -183 20
-204 -1 -10 -11 -37 -15 -98 -15 -57 -1 -89 -5 -102 -15 -11 -8 -39 -15 -63
-15 -32 0 -43 -4 -43 -15 0 -11 -12 -15 -45 -15 -33 0 -45 -4 -45 -15 0 -8 -7
-15 -15 -15 -8 0 -15 -7 -15 -15 0 -12 -13 -15 -60 -15 -47 0 -60 3 -60 15 0
20 -56 20 -64 0 -3 -8 -9 -15 -13 -14 -4 1 -29 1 -55 0 -36 -1 -48 -5 -48 -16
0 -8 -7 -15 -15 -15 -8 0 -15 -7 -15 -15 0 -10 -10 -15 -29 -15 -16 0 -31 -5
-33 -11 -2 -6 -16 -12 -31 -12 -16 -1 -29 -9 -33 -19 -4 -13 -16 -18 -45 -18
-28 0 -39 -4 -39 -15 0 -11 -12 -15 -44 -15 -24 0 -46 -5 -48 -11 -2 -5 -22
-13 -46 -16 -26 -3 -42 -11 -42 -19 0 -8 -6 -14 -14 -14 -8 0 -16 -7 -20 -15
-3 -9 -19 -15 -41 -15 -22 0 -38 -6 -41 -15 -4 -8 -12 -15 -20 -15 -8 0 -14
-7 -14 -15 0 -8 -9 -15 -20 -15 -11 0 -20 -7 -20 -16 0 -8 -4 -13 -9 -10 -12
8 -33 -19 -23 -29 4 -5 1 -5 -6 -1 -7 4 -15 1 -18 -9 -6 -13 -8 -14 -15 -3 -7
10 -9 9 -9 -4 0 -17 -55 -78 -71 -78 -5 0 -9 -7 -9 -15 0 -8 -9 -15 -20 -15
-11 0 -20 -7 -20 -15 0 -8 -7 -15 -15 -15 -8 0 -15 -7 -15 -15 0 -8 -7 -15
-15 -15 -8 0 -15 -7 -15 -15 0 -8 -7 -15 -15 -15 -8 0 -15 -6 -15 -14 0 -7 -9
-16 -21 -19 -13 -4 -18 -10 -13 -18 4 -7 3 -10 -3 -6 -12 8 -63 -33 -63 -51 0
-7 -4 -12 -10 -12 -5 0 -10 -7 -10 -15 0 -8 -4 -15 -9 -15 -5 0 -12 -13 -16
-30 -5 -25 -11 -30 -36 -30 -26 0 -29 -4 -29 -30 0 -27 -3 -30 -30 -30 -26 0
-30 -4 -30 -27 0 -22 -8 -32 -36 -45 -19 -10 -46 -18 -59 -18 -16 0 -25 -6
-25 -15 0 -10 -10 -15 -30 -15 -20 0 -30 -5 -30 -15 0 -8 -9 -15 -21 -15 -11
0 -17 -5 -14 -10 3 -6 -1 -13 -9 -16 -11 -4 -16 -19 -16 -45 0 -40 -24 -79
-47 -79 -7 0 -13 -7 -13 -15 0 -8 -7 -15 -15 -15 -11 0 -15 -12 -15 -45 0 -33
-4 -45 -15 -45 -10 0 -15 -10 -15 -30 0 -20 -5 -30 -15 -30 -8 0 -15 -7 -15
-15 0 -8 -7 -15 -15 -15 -8 0 -15 -7 -15 -15 0 -8 -6 -15 -14 -15 -8 0 -17
-11 -20 -25 -4 -14 -11 -25 -16 -25 -6 0 -10 -9 -10 -20 0 -11 -7 -20 -15 -20
-8 0 -15 -7 -15 -15 0 -10 -11 -15 -32 -16 -28 0 -30 -2 -13 -9 14 -6 15 -9 5
-9 -9 -1 -22 -10 -30 -21 -8 -11 -22 -20 -32 -20 -10 0 -18 -7 -18 -15 0 -8
-7 -15 -15 -15 -8 0 -15 -7 -15 -15 0 -8 -6 -15 -14 -15 -8 0 -17 -14 -21 -30
-4 -17 -11 -28 -16 -24 -5 3 -9 -2 -9 -10 0 -9 -7 -16 -15 -16 -8 0 -15 -9
-15 -19 0 -11 -7 -26 -15 -35 -8 -8 -15 -28 -15 -45 0 -21 -5 -31 -15 -31 -10
0 -15 -10 -15 -29 0 -16 -7 -36 -15 -45 -8 -8 -15 -22 -15 -30 0 -9 -7 -16
-15 -16 -10 0 -15 -10 -15 -30 0 -16 -4 -30 -10 -30 -16 0 -23 -49 -10 -65 7
-8 8 -15 3 -15 -6 0 -13 -21 -16 -47 -3 -26 -10 -49 -16 -51 -6 -2 -11 -10
-11 -18 0 -8 -7 -14 -15 -14 -8 0 -15 -7 -15 -16 0 -8 -5 -12 -11 -9 -6 4 -13
-2 -16 -14 -3 -12 -11 -21 -18 -21 -9 0 -14 -23 -17 -72 -2 -44 -9 -73 -16
-76 -7 -2 -12 -15 -12 -28 0 -14 -7 -35 -16 -48 -18 -29 -16 -130 4 -132 6 -1
15 -3 20 -4 4 -1 10 -2 15 -1 4 0 7 -6 7 -14 0 -8 -7 -15 -15 -15 -11 0 -15
-12 -15 -45 0 -25 4 -45 10 -45 5 0 19 -8 30 -17 19 -16 20 -29 20 -195 0
-152 2 -178 15 -178 12 0 15 -17 15 -89 0 -70 3 -90 15 -95 11 -4 15 -21 15
-60 0 -39 4 -55 15 -60 11 -4 15 -21 15 -61 0 -37 5 -62 15 -71 12 -12 15 -44
15 -150 0 -111 3 -134 15 -134 11 0 15 -19 17 -92 2 -68 6 -92 16 -90 9 1 12
-18 12 -73 0 -61 3 -75 15 -75 9 0 15 -6 14 -12 -4 -32 2 -69 10 -64 11 7 21
-17 21 -50 0 -15 6 -24 15 -24 10 0 15 -10 15 -30 0 -16 4 -30 9 -30 5 0 13
-14 16 -32 4 -17 14 -38 21 -46 8 -7 14 -22 14 -33 0 -10 6 -18 13 -17 7 2 13
-10 15 -30 2 -18 7 -30 12 -27 5 3 11 -8 15 -25 4 -16 13 -30 21 -30 9 0 14
-11 14 -30 0 -20 5 -30 15 -30 10 0 15 -10 15 -30 0 -20 5 -30 15 -30 8 0 15
-7 15 -15 0 -8 7 -15 15 -15 8 0 15 -9 15 -21 0 -11 4 -18 9 -15 10 6 20 -25
22 -64 0 -23 1 -23 8 -5 7 17 9 15 16 -14 4 -19 14 -41 21 -49 8 -7 14 -22 14
-33 0 -11 4 -18 9 -15 5 4 12 -7 16 -24 4 -16 13 -30 21 -30 8 0 14 -7 14 -16
0 -8 7 -22 15 -30 8 -9 15 -26 15 -40 0 -14 7 -27 15 -30 8 -4 15 -12 15 -20
0 -8 7 -14 15 -14 8 0 15 -9 15 -20 0 -14 5 -18 17 -13 13 5 15 2 10 -11 -4
-10 -1 -19 8 -22 8 -4 12 -10 9 -15 -3 -5 0 -9 5 -9 6 0 11 -7 11 -15 0 -8 7
-15 15 -15 10 0 15 -10 15 -32 0 -21 3 -28 8 -20 6 9 12 6 20 -13 6 -14 16
-25 22 -25 5 0 10 -7 10 -15 0 -8 7 -15 15 -15 8 0 15 -9 15 -19 0 -11 7 -26
15 -35 8 -8 15 -19 15 -25 0 -6 7 -11 15 -11 8 0 15 -7 15 -15 0 -8 7 -15 15
-15 10 0 15 -10 15 -30 0 -20 5 -30 15 -30 8 0 15 -9 15 -20 0 -11 5 -19 12
-18 12 3 14 -2 17 -37 0 -8 8 -15 16 -15 8 0 15 -7 15 -15 0 -8 7 -15 15 -15
10 0 15 -10 15 -30 0 -20 5 -30 15 -30 10 0 15 -10 15 -30 0 -20 5 -30 15 -30
10 0 15 -10 15 -30 0 -20 5 -30 15 -30 10 0 15 -10 15 -30 0 -16 4 -30 9 -30
5 0 12 -14 16 -30 4 -17 13 -30 21 -30 10 0 14 -13 14 -45 0 -33 4 -45 15 -45
12 0 15 -13 15 -55 0 -40 4 -57 15 -61 10 -4 15 -20 15 -46 0 -22 7 -46 15
-54 11 -12 15 -39 15 -110 0 -77 3 -94 15 -94 12 0 15 -18 15 -104 0 -74 4
-106 12 -108 9 -3 14 -40 18 -116 3 -69 10 -116 18 -124 19 -19 17 -268 -2
-268 -8 0 -17 -14 -21 -30 -7 -32 -22 -39 -31 -15 -8 20 -84 21 -84 1 0 -8 -7
-16 -15 -20 -12 -4 -15 -28 -15 -124 0 -90 -3 -122 -14 -131 -9 -7 -15 -39
-18 -83 -2 -44 -9 -73 -16 -76 -7 -2 -12 -22 -12 -47 0 -26 -6 -47 -15 -55
-12 -10 -15 -38 -15 -135 0 -100 -3 -124 -15 -129 -10 -3 -15 -19 -15 -46 0
-29 -4 -40 -15 -40 -10 0 -15 -10 -15 -30 0 -20 -5 -30 -15 -30 -8 0 -15 -9
-15 -20 0 -11 -7 -23 -15 -26 -8 -4 -15 -15 -15 -25 0 -10 -7 -19 -15 -19 -8
0 -15 -7 -15 -15 0 -8 -6 -15 -14 -15 -17 0 -23 -23 -18 -63 3 -15 11 -27 19
-27 11 0 14 -13 11 -60 -2 -44 -6 -59 -15 -55 -8 2 -13 -4 -13 -15 0 -11 -7
-20 -15 -20 -13 0 -20 -18 -16 -42 0 -3 -13 -10 -31 -13 -22 -5 -27 -9 -17
-16 11 -7 10 -9 -3 -9 -10 0 -18 5 -18 10 0 6 -5 10 -10 10 -6 0 -9 -6 -8 -12
2 -7 -7 -14 -19 -16 -12 -2 -27 -10 -33 -18 -7 -8 -17 -14 -23 -14 -12 0 -77
-68 -77 -81 0 -5 -7 -9 -15 -9 -8 0 -15 -6 -15 -14 0 -7 -7 -19 -15 -26 -8 -7
-15 -21 -15 -31 0 -11 -7 -19 -15 -19 -8 0 -15 -7 -15 -15 0 -8 -7 -15 -15
-15 -8 0 -15 -7 -15 -15 0 -8 -7 -15 -15 -15 -8 0 -15 -7 -15 -15 0 -8 -7 -15
-15 -15 -8 0 -15 -7 -15 -15 0 -8 -7 -15 -16 -15 -8 0 -29 -13 -46 -30 -16
-17 -36 -30 -44 -30 -8 0 -14 -7 -14 -15 0 -8 -7 -15 -15 -15 -8 0 -15 -7 -15
-15 0 -8 -9 -15 -20 -15 -11 0 -19 -6 -18 -13 2 -6 -3 -11 -9 -9 -7 1 -13 -7
-13 -18 0 -13 -7 -20 -19 -20 -11 0 -26 -7 -35 -15 -8 -8 -19 -15 -25 -15 -6
0 -11 -7 -11 -15 0 -8 -7 -15 -15 -15 -8 0 -15 -7 -15 -15 0 -8 -5 -15 -10
-15 -6 0 -21 -11 -34 -25 -13 -13 -26 -22 -29 -18 -4 3 -7 1 -7 -5 0 -7 -9
-12 -20 -12 -11 0 -20 -7 -20 -15 0 -8 -6 -15 -14 -15 -8 0 -16 -7 -20 -15 -3
-8 -12 -15 -21 -15 -8 0 -15 -4 -15 -10 0 -5 -11 -12 -25 -16 -14 -3 -25 -12
-25 -19 0 -7 -9 -15 -21 -18 -12 -3 -18 -10 -15 -16 3 -5 -7 -12 -24 -16 -16
-4 -30 -11 -30 -16 0 -5 -7 -9 -15 -9 -8 0 -15 -7 -15 -15 0 -8 -7 -15 -15
-15 -8 0 -15 -7 -15 -15 0 -8 -6 -15 -14 -15 -8 0 -16 -5 -18 -12 -2 -6 -14
-13 -26 -15 -23 -3 -62 -36 -62 -52 0 -5 -13 -12 -30 -16 -17 -4 -32 -15 -35
-26 -4 -11 -9 -18 -12 -15 -3 3 -16 -6 -29 -19 -13 -14 -28 -25 -34 -25 -5 0
-10 -7 -10 -15 0 -8 -7 -15 -15 -15 -8 0 -15 -7 -15 -15 0 -8 -8 -15 -18 -15
-10 0 -36 -20 -58 -45 -21 -24 -47 -45 -56 -45 -10 0 -18 -6 -18 -14 0 -8 -7
-16 -15 -20 -8 -3 -15 -12 -15 -21 0 -8 -8 -15 -17 -15 -15 0 -16 -2 -3 -10
12 -8 9 -10 -12 -10 -18 0 -28 -5 -28 -15 0 -8 -7 -15 -15 -15 -8 0 -15 -7
-15 -15 0 -8 -7 -15 -15 -15 -8 0 -15 -7 -15 -15 0 -8 -7 -15 -15 -15 -8 0
-15 -6 -15 -12 0 -7 -20 -22 -45 -33 -25 -11 -45 -24 -45 -30 0 -6 -20 -19
-45 -30 -25 -11 -45 -26 -45 -33 0 -9 -10 -12 -27 -10 -36 4 -43 28 -8 28 15
0 24 4 20 10 -3 6 -1 10 4 10 6 0 11 9 11 20 0 11 7 20 15 20 10 0 15 10 15
30 0 20 -5 30 -15 30 -8 0 -15 7 -15 15 0 8 -7 15 -15 15 -8 0 -15 7 -15 15 0
8 -7 15 -15 15 -8 0 -15 7 -15 15 0 8 -7 15 -15 15 -8 0 -15 7 -15 15 0 8 -7
15 -15 15 -8 0 -15 7 -15 15 0 8 -7 15 -15 15 -8 0 -15 4 -15 10 0 5 -11 12
-24 16 -14 3 -27 12 -30 20 -3 8 -12 14 -21 14 -8 0 -15 7 -15 15 0 8 -5 15
-11 15 -6 0 -17 7 -25 15 -9 8 -24 15 -35 15 -10 0 -19 7 -19 15 0 8 -7 15
-15 15 -8 0 -15 7 -15 15 0 13 -18 20 -42 16 -5 0 -8 6 -8 14 0 8 -9 15 -20
15 -11 0 -20 7 -20 15 0 8 -7 15 -15 15 -8 0 -15 7 -15 15 0 8 -7 15 -15 15
-8 0 -15 7 -15 15 0 8 -7 15 -15 15 -10 0 -15 10 -15 30 0 20 -5 30 -15 30 -8
0 -15 7 -15 15 0 8 -7 15 -15 15 -8 0 -15 7 -15 15 0 8 -7 15 -16 15 -10 0
-14 6 -10 15 4 10 -1 15 -14 15 -16 0 -20 7 -20 30 0 18 -5 30 -13 30 -7 0
-20 8 -29 18 -29 30 -47 42 -63 42 -10 0 -15 10 -15 30 0 20 -5 30 -15 30 -8
0 -15 7 -15 15 0 8 -7 15 -15 15 -8 0 -15 9 -15 20 0 11 -11 27 -25 36 -14 9
-28 27 -31 40 -3 13 -12 24 -20 24 -8 0 -14 10 -14 25 0 14 -7 28 -15 31 -9 4
-15 19 -15 40 0 24 -4 32 -14 28 -8 -3 -14 1 -13 8 1 34 -4 48 -18 48 -8 0
-15 9 -15 21 0 13 -4 18 -12 13 -8 -5 -9 -2 -5 9 3 10 2 17 -3 17 -6 0 -10 7
-10 15 0 8 -7 15 -15 15 -9 0 -15 6 -14 12 4 31 -2 48 -16 48 -8 0 -15 7 -15
15 0 8 -7 15 -15 15 -10 0 -15 10 -15 30 0 20 -5 30 -15 30 -8 0 -15 7 -15 15
0 8 -7 15 -15 15 -10 0 -15 10 -15 30 0 20 -5 30 -15 30 -8 0 -15 7 -15 15 0
8 -7 15 -15 15 -10 0 -15 10 -15 30 0 20 -5 30 -15 30 -8 0 -15 8 -15 19 0 10
-7 24 -15 31 -8 7 -15 19 -15 26 0 8 -7 14 -15 14 -10 0 -15 10 -15 30 0 20
-5 30 -15 30 -8 0 -15 7 -15 15 0 8 -4 15 -9 15 -5 0 -12 13 -16 30 -4 16 -13
30 -21 30 -8 0 -14 9 -14 19 0 11 -7 26 -15 35 -8 8 -15 19 -15 25 0 6 -7 11
-15 11 -10 0 -15 10 -15 30 0 20 -5 30 -15 30 -8 0 -15 7 -15 15 0 8 -7 15
-15 15 -10 0 -15 10 -15 30 0 20 -5 30 -15 30 -9 0 -15 9 -15 25 0 14 -7 28
-15 31 -8 4 -15 17 -15 30 0 14 -7 27 -15 30 -8 4 -15 12 -15 19 0 7 -7 15
-15 19 -8 3 -15 17 -15 31 0 15 -7 33 -15 41 -8 9 -15 29 -15 45 0 19 -5 29
-15 29 -10 0 -15 10 -15 30 0 20 -5 30 -15 30 -10 0 -15 10 -15 30 0 20 -5 30
-15 30 -11 0 -15 11 -15 35 0 22 -6 38 -15 41 -9 4 -15 19 -15 40 0 24 -5 34
-15 34 -10 0 -15 11 -15 35 0 24 -5 35 -15 35 -8 0 -14 3 -14 8 5 31 -3 72
-14 72 -9 0 -14 14 -15 42 -1 23 -7 45 -12 48 -6 4 -14 26 -18 51 -5 25 -13
43 -20 41 -8 -1 -12 17 -12 58 0 45 -4 62 -15 66 -8 4 -15 17 -15 30 0 12 -7
27 -16 32 -9 5 -15 12 -15 15 1 4 1 27 1 52 0 33 -4 45 -15 45 -12 0 -15 18
-15 105 0 87 -3 105 -15 105 -11 0 -15 12 -15 49 0 31 -6 55 -15 65 -10 9 -15
34 -15 70 0 41 -4 56 -14 56 -10 0 -15 19 -18 72 -2 44 -9 73 -16 76 -8 2 -12
26 -12 63 0 46 -3 59 -15 59 -11 0 -15 12 -15 45 0 33 -4 45 -15 45 -12 0 -15
13 -15 55 0 40 -4 57 -15 61 -11 5 -15 22 -15 65 0 46 -3 59 -15 59 -13 0 -15
25 -15 163 0 128 -3 167 -15 183 -11 15 -14 56 -15 195 0 126 -3 178 -12 187
-9 9 -14 71 -18 208 -4 144 -8 197 -18 203 -10 6 -12 59 -9 247 6 309 5 294
17 294 6 0 10 42 10 109 0 84 3 113 15 125 12 11 15 41 15 130 0 96 3 116 15
116 12 0 15 17 15 96 0 71 4 99 15 110 13 13 21 89 18 172 -1 6 5 12 13 12 10
0 14 15 14 59 0 36 5 61 11 63 7 2 15 38 18 83 4 47 12 80 19 83 7 2 12 23 12
53 0 29 4 49 11 49 6 0 8 7 5 16 -3 8 -2 12 4 9 9 -5 15 46 11 83 -1 6 5 12
14 12 11 0 15 11 15 45 0 33 4 45 15 45 11 0 15 12 15 44 0 26 6 51 15 60 8 8
15 26 15 41 0 15 7 33 15 41 8 9 15 31 15 50 0 24 5 34 15 34 11 0 15 12 15
45 0 33 4 45 15 45 11 0 15 11 15 36 0 20 4 33 9 29 9 -5 14 13 25 85 2 14 9
24 15 22 9 -2 17 50 12 81 0 4 4 6 11 5 6 -2 15 13 19 32 4 19 12 36 18 38 6
2 11 17 11 33 0 19 5 29 15 29 10 0 15 10 15 30 0 20 5 30 15 30 11 0 15 12
15 45 0 33 4 45 15 45 10 0 15 10 15 28 0 16 7 37 15 48 8 10 15 31 15 47 0
17 5 27 15 27 10 0 15 10 15 30 0 20 5 30 15 30 10 0 15 10 15 29 0 16 6 31
15 35 8 3 15 16 15 30 0 14 7 31 15 40 8 8 15 24 15 35 0 11 7 27 16 36 9 9
17 27 17 40 0 13 5 23 11 22 6 -1 12 13 14 31 2 20 9 32 18 32 13 0 18 14 17
48 -1 6 5 12 13 12 8 0 14 10 14 24 0 13 7 26 15 30 8 3 15 12 15 20 0 7 7 16
15 20 8 3 15 16 15 30 0 13 7 26 15 30 8 3 15 17 15 31 0 16 6 25 15 25 13 0
20 18 16 43 -1 4 6 10 14 13 8 4 15 12 15 19 0 7 7 15 15 19 8 3 15 17 15 31
0 16 6 25 15 25 8 0 15 5 15 11 0 6 7 17 15 25 8 9 15 24 15 35 0 10 7 19 15
19 13 0 20 18 16 43 0 4 6 7 14 7 8 0 15 9 15 20 0 11 5 20 10 20 6 0 15 11
22 25 6 13 15 22 19 19 5 -3 9 6 9 20 0 16 6 26 15 26 8 0 15 5 15 10 0 6 9
19 21 31 11 11 18 27 15 35 -3 8 1 14 9 14 8 0 15 7 15 15 0 8 7 15 15 15 8 0
15 5 15 10 0 6 11 21 25 34 13 13 22 26 18 29 -3 4 -1 7 5 7 7 0 12 9 12 20 0
11 7 20 15 20 8 0 15 7 15 15 0 8 7 15 15 15 8 0 15 6 15 13 0 7 9 20 20 30
12 10 18 22 15 27 -4 6 1 13 9 16 9 3 16 12 16 20 0 8 7 14 15 14 8 0 15 7 15
15 0 8 7 15 15 15 8 0 15 9 15 20 0 11 4 20 10 20 5 0 12 11 16 25 3 14 12 25
20 25 8 0 14 7 14 15 0 8 7 15 15 15 8 0 15 7 15 15 0 8 7 15 15 15 8 0 15 7
15 15 0 8 7 15 15 15 8 0 15 5 15 10 0 6 8 19 18 29 34 39 42 50 42 66 0 8 7
15 15 15 8 0 15 7 15 15 0 8 7 15 15 15 8 0 15 7 15 15 0 8 7 15 15 15 8 0 15
7 15 15 0 8 7 15 15 15 8 0 15 7 15 15 0 8 7 15 15 15 8 0 15 4 15 10 0 13 66
80 79 80 6 0 11 7 11 15 0 8 7 15 15 15 8 0 15 5 15 10 0 6 9 19 20 30 11 11
25 20 30 20 6 0 10 7 10 15 0 8 7 15 15 15 8 0 15 7 15 15 0 8 7 15 15 15 8 0
15 7 15 15 0 8 7 15 15 15 8 0 15 7 15 15 0 8 7 15 15 15 8 0 15 7 15 15 0 8
7 15 15 15 8 0 15 7 15 15 0 8 7 15 15 15 8 0 15 7 15 15 0 8 7 15 15 15 16 0
27 8 66 43 10 9 24 17 29 17 6 0 10 4 10 10 0 12 68 80 80 80 6 0 10 7 10 15
0 8 7 15 15 15 8 0 15 7 15 15 0 8 5 15 10 15 6 0 23 12 37 28 14 15 29 26 33
25 4 -1 16 7 25 17 10 11 24 20 32 20 7 0 13 7 13 15 0 8 7 15 15 15 8 0 15 7
15 15 0 8 7 15 15 15 8 0 15 7 15 15 0 9 9 15 25 15 14 0 28 7 31 15 4 8 12
15 20 15 8 0 14 7 14 15 0 8 6 15 14 15 8 0 16 7 20 15 3 8 17 15 31 15 16 0
25 6 25 15 0 8 7 15 15 15 8 0 15 7 15 15 0 8 9 15 20 15 11 0 20 7 20 15 0 8
3 14 8 14 24 -4 42 3 42 16 0 8 9 15 20 15 13 0 18 5 13 16 -4 10 -1 15 8 14
31 -5 49 1 49 15 0 8 7 15 15 15 8 0 15 7 15 15 0 9 9 15 25 15 14 0 28 7 31
15 4 8 12 15 20 15 8 0 14 6 14 14 0 7 9 16 21 19 14 4 18 10 13 18 -5 9 -2
10 10 6 10 -4 24 1 36 13 11 11 24 20 29 20 5 0 11 7 15 15 3 8 15 15 26 15
11 0 23 7 26 15 4 9 19 15 38 15 23 0 27 3 17 9 -12 8 -9 11 12 16 15 4 27 13
27 21 0 9 11 14 30 14 20 0 30 5 30 15 0 10 10 15 30 15 20 0 30 5 30 15 0 8
8 15 19 15 10 0 24 7 31 15 7 8 19 15 26 15 8 0 14 4 14 10 0 5 16 12 35 16
19 3 33 11 32 17 -2 11 4 13 38 16 8 0 15 8 15 16 0 10 11 15 35 15 26 0 33 3
29 15 -5 11 1 15 24 15 17 0 37 7 46 15 8 8 26 15 41 15 14 0 28 7 31 15 4 9
19 15 35 15 19 0 29 5 29 15 0 10 10 15 30 15 20 0 30 5 30 15 0 10 10 15 30
15 20 0 30 5 30 15 0 10 10 15 30 15 17 0 30 5 30 10 0 6 6 10 13 10 7 0 30 9
52 20 22 11 50 20 62 20 14 0 23 6 23 15 0 10 10 15 30 15 20 0 30 5 30 15 0
11 12 15 45 15 33 0 45 4 45 15 0 11 11 15 36 15 19 0 33 4 30 9 -8 12 18 21
60 21 24 0 34 5 34 15 0 8 3 14 8 14 34 -6 72 3 72 16 0 10 11 15 35 15 19 0
35 5 35 11 0 5 5 7 10 4 6 -3 10 -1 10 4 0 6 14 11 31 11 17 0 37 7 45 15 9 8
29 15 45 15 17 0 37 7 45 15 9 9 34 15 60 15 30 0 46 5 50 15 5 11 21 15 60
15 41 0 54 4 54 15 0 11 12 15 44 15 26 0 46 5 48 12 3 7 32 14 76 16 53 3 72
8 72 18 0 10 15 14 55 14 40 0 57 4 61 15 5 11 22 15 69 15 43 0 66 5 75 15 9
11 32 15 80 15 48 0 71 4 80 15 10 11 36 15 111 15 74 0 98 3 97 13 -3 14 -4
14 149 16 87 1 125 5 135 14 8 8 47 16 97 20 46 3 88 10 94 16 7 7 198 10 596
11 502 0 590 -2 615 -15z m119 -2181 c-7 -18 -33 -26 -33 -10 0 16 7 23 24 23
8 0 12 -6 9 -13z m-3742 -1383 c-25 -25 -86 -29 -95 -6 -4 12 4 15 43 15 37 0
51 4 56 18 5 11 9 13 12 5 2 -6 -5 -21 -16 -32z m-81 -126 c0 -12 14 -15 65
-15 51 0 65 -3 65 -15 0 -10 -10 -15 -29 -15 -16 0 -31 -6 -35 -15 -4 -12 -24
-15 -91 -15 -52 0 -85 4 -85 10 0 6 7 13 15 16 8 4 15 12 15 20 0 8 7 14 15
14 8 0 15 7 15 15 0 9 9 15 25 15 16 0 25 -6 25 -15z m6007 -25 c2 -12 -3 -20
-12 -20 -8 0 -15 7 -15 15 0 8 5 15 11 15 5 0 7 6 3 13 -4 6 -3 9 1 4 5 -4 10
-16 12 -27z m-7878 -9136 c-17 -21 -38 -17 -32 5 3 13 11 17 24 14 15 -4 17
-8 8 -19z m-84 -44 c-3 -5 -1 -10 6 -10 7 0 10 -3 6 -6 -9 -9 -28 6 -22 17 4
5 8 9 11 9 3 0 2 -4 -1 -10z"/>
</g>
</svg>
